<svg xmlns="http://www.w3.org/2000/svg" xmlns:xlink="http://www.w3.org/1999/xlink" width="180" height="60" viewBox="0 0 180 60">
  <defs>
    <linearGradient id="linear-gradient" x1="0.015" y1="0.732" x2="0.896" y2="0.184" gradientUnits="objectBoundingBox">
      <stop offset="0.106" stop-color="#1d1d1b" stop-opacity="0"/>
      <stop offset="1" stop-color="#1d1d1b"/>
    </linearGradient>
    <linearGradient id="linear-gradient-2" x1="0.007" y1="0.312" x2="0.824" y2="0.763" gradientUnits="objectBoundingBox">
      <stop offset="0" stop-color="#1d1d1b"/>
      <stop offset="0.894" stop-color="#1d1d1b" stop-opacity="0"/>
    </linearGradient>
  </defs>
  <g id="Abiomix_Logo" data-name="Abiomix Logo" transform="translate(454.73 149.824)">
    <g id="Group_184939" data-name="Group 184939" transform="translate(-454.73 -149.824)">
      <g id="Group_184933" data-name="Group 184933" transform="translate(61.414 13.607)">
        <g id="Group_184931" data-name="Group 184931" transform="translate(15.389 27.563)">
          <path id="Path_240884" data-name="Path 240884" d="M388.048,206.232h.929v4.973h-.929Z" transform="translate(-388.048 -206.107)" fill="#6a6d71"/>
          <path id="Path_240885" data-name="Path 240885" d="M398.077,206.232h.9l2.1,3.272v-3.272h.936v4.973h-.9l-2.1-3.262v3.262h-.936Z" transform="translate(-396.092 -206.107)" fill="#6a6d71"/>
          <path id="Path_240886" data-name="Path 240886" d="M423.656,206.232h.9l2.1,3.272v-3.272h.936v4.973h-.9l-2.1-3.262v3.262h-.936Z" transform="translate(-416.608 -206.107)" fill="#6a6d71"/>
          <path id="Path_240887" data-name="Path 240887" d="M450.55,205.607a2.427,2.427,0,0,1,1.794.764,2.559,2.559,0,0,1,.751,1.863,2.529,2.529,0,0,1-.741,1.842,2.545,2.545,0,0,1-3.636-.02,2.682,2.682,0,0,1-.391-3.151,2.539,2.539,0,0,1,.938-.949A2.5,2.5,0,0,1,450.55,205.607Zm-.01.926a1.535,1.535,0,0,0-1.148.48,1.683,1.683,0,0,0-.465,1.22,1.625,1.625,0,0,0,1.629,1.68,1.516,1.516,0,0,0,1.134-.487,1.769,1.769,0,0,0,0-2.4A1.53,1.53,0,0,0,450.54,206.533Z" transform="translate(-436.122 -205.607)" fill="#6a6d71"/>
          <path id="Path_240888" data-name="Path 240888" d="M476.374,206.232h.962l1.237,3.533,1.255-3.533h.961l-1.771,4.973h-.9Z" transform="translate(-458.893 -206.107)" fill="#6a6d71"/>
          <path id="Path_240889" data-name="Path 240889" d="M502.363,206.232h.949l1.89,4.973h-.972l-.385-1.024h-2.006l-.4,1.024h-.972Zm.48,1.318-.659,1.707H503.5Z" transform="translate(-478.217 -206.107)" fill="#6a6d71"/>
          <path id="Path_240890" data-name="Path 240890" d="M525.6,206.232h2.716v.933h-.9v4.04h-.949v-4.04H525.6Z" transform="translate(-498.376 -206.107)" fill="#6a6d71"/>
          <path id="Path_240891" data-name="Path 240891" d="M542.229,206.232h.929v4.973h-.929Z" transform="translate(-511.714 -206.107)" fill="#6a6d71"/>
          <path id="Path_240892" data-name="Path 240892" d="M550.358,206.232h.962l1.237,3.533,1.255-3.533h.961L553,211.205h-.9Z" transform="translate(-518.234 -206.107)" fill="#6a6d71"/>
          <path id="Path_240893" data-name="Path 240893" d="M576.469,206.232h2.683v.926H577.4v.9h1.755v.909H577.4v1.309h1.755v.93h-2.683Z" transform="translate(-539.177 -206.107)" fill="#6a6d71"/>
          <path id="Path_240894" data-name="Path 240894" d="M603.77,206.232h.929v4.973h-.929Z" transform="translate(-561.074 -206.107)" fill="#6a6d71"/>
          <path id="Path_240895" data-name="Path 240895" d="M613.8,206.232h.9l2.1,3.272v-3.272h.936v4.973h-.9l-2.1-3.262v3.262H613.8Z" transform="translate(-569.118 -206.107)" fill="#6a6d71"/>
          <path id="Path_240896" data-name="Path 240896" d="M639.428,206.232h2.439v.923h-1.51v.9h1.51v.909h-1.51v2.238h-.929Z" transform="translate(-589.675 -206.107)" fill="#6a6d71"/>
          <path id="Path_240897" data-name="Path 240897" d="M657.289,205.607a2.427,2.427,0,0,1,1.794.764,2.558,2.558,0,0,1,.751,1.863,2.53,2.53,0,0,1-.741,1.842,2.546,2.546,0,0,1-3.636-.02,2.682,2.682,0,0,1-.391-3.151,2.54,2.54,0,0,1,.938-.949A2.5,2.5,0,0,1,657.289,205.607Zm-.01.926a1.535,1.535,0,0,0-1.148.48,1.683,1.683,0,0,0-.465,1.22,1.625,1.625,0,0,0,1.629,1.68,1.515,1.515,0,0,0,1.134-.487,1.769,1.769,0,0,0,0-2.4A1.53,1.53,0,0,0,657.279,206.533Z" transform="translate(-601.944 -205.607)" fill="#6a6d71"/>
          <path id="Path_240898" data-name="Path 240898" d="M685.318,206.232h.991a3.24,3.24,0,0,1,1.16.147,1.191,1.191,0,0,1,.556.488,1.511,1.511,0,0,1,.21.808,1.388,1.388,0,0,1-.232.82,1.41,1.41,0,0,1-.7.5l1.164,2.211h-1.023l-1.105-2.106h-.086v2.106h-.936Zm.936,1.944h.293a1.134,1.134,0,0,0,.615-.119.448.448,0,0,0,.168-.393.485.485,0,0,0-.083-.283.461.461,0,0,0-.223-.173,1.676,1.676,0,0,0-.513-.053h-.257Z" transform="translate(-626.482 -206.107)" fill="#6a6d71"/>
          <path id="Path_240899" data-name="Path 240899" d="M704.015,206.232h.912l1.14,3.468,1.15-3.468h.911l.825,4.973h-.9l-.527-3.141-1.044,3.141h-.824l-1.035-3.141-.54,3.141h-.912Z" transform="translate(-640.796 -206.107)" fill="#6a6d71"/>
          <path id="Path_240900" data-name="Path 240900" d="M736.066,206.232h.949l1.891,4.973h-.972l-.384-1.024h-2.006l-.4,1.024h-.972Zm.48,1.318-.659,1.707H737.2Z" transform="translate(-665.666 -206.107)" fill="#6a6d71"/>
          <path id="Path_240901" data-name="Path 240901" d="M759.3,206.232h2.717v.933h-.9v4.04h-.949v-4.04H759.3Z" transform="translate(-685.823 -206.107)" fill="#6a6d71"/>
          <path id="Path_240902" data-name="Path 240902" d="M775.932,206.232h.929v4.973h-.929Z" transform="translate(-699.162 -206.107)" fill="#6a6d71"/>
          <path id="Path_240903" data-name="Path 240903" d="M789.473,206.606l-.654.631a2.017,2.017,0,0,0-1.5-.714,1.605,1.605,0,0,0-1.187.487,1.641,1.641,0,0,0-.482,1.2,1.794,1.794,0,0,0,.214.883,1.54,1.54,0,0,0,.6.606,1.737,1.737,0,0,0,.868.22,1.773,1.773,0,0,0,.744-.154,2.666,2.666,0,0,0,.741-.56l.634.67a3.482,3.482,0,0,1-1.029.746,2.782,2.782,0,0,1-1.106.208,2.531,2.531,0,0,1-1.876-.735,2.562,2.562,0,0,1-.73-1.885,2.6,2.6,0,0,1,.333-1.322,2.484,2.484,0,0,1,.952-.93,2.661,2.661,0,0,1,1.335-.352,2.763,2.763,0,0,1,1.171.26A2.8,2.8,0,0,1,789.473,206.606Z" transform="translate(-706.204 -205.607)" fill="#6a6d71"/>
          <path id="Path_240904" data-name="Path 240904" d="M813.767,206.408l-.693.619a.983.983,0,0,0-.743-.514.449.449,0,0,0-.3.1.292.292,0,0,0-.117.225.387.387,0,0,0,.084.236,6.362,6.362,0,0,0,.686.639q.535.453.649.571a1.976,1.976,0,0,1,.4.556,1.4,1.4,0,0,1,.119.58,1.337,1.337,0,0,1-.418,1.011,1.514,1.514,0,0,1-1.091.4,1.608,1.608,0,0,1-.915-.26,2.049,2.049,0,0,1-.667-.818l.786-.48q.355.659.817.659a.6.6,0,0,0,.405-.142.424.424,0,0,0,.164-.328.57.57,0,0,0-.124-.338,3.61,3.61,0,0,0-.546-.517,5.527,5.527,0,0,1-1.038-1.023,1.309,1.309,0,0,1-.234-.718,1.181,1.181,0,0,1,.39-.887,1.342,1.342,0,0,1,.962-.37,1.5,1.5,0,0,1,.7.172A2.565,2.565,0,0,1,813.767,206.408Z" transform="translate(-727.099 -205.607)" fill="#6a6d71"/>
        </g>
        <path id="Path_240905" data-name="Path 240905" d="M310.3,92.573l2.351-24.62h7.615l2.323,24.62h-4.393l-.324-3.79h-2.8l-.27,3.79Zm5.121-7.525h2.1l-1.024-11.915h-.216Z" transform="translate(-310.296 -67.953)" fill="#6a6d71"/>
        <path id="Path_240906" data-name="Path 240906" d="M392.9,90.447v2.127h-4.851V67.953H392.9V73.57A3.562,3.562,0,0,1,395.54,72.4a3.784,3.784,0,0,1,3.288,1.377,6.7,6.7,0,0,1,1,3.967v9.625a6.824,6.824,0,0,1-1.024,3.94,3.538,3.538,0,0,1-3.126,1.486Q393.734,92.792,392.9,90.447Zm1.873-1.677a1.7,1.7,0,0,0,.242-.791q.041-.477.04-1.486V78.177a4.938,4.938,0,0,0-.189-1.581.772.772,0,0,0-.808-.518.916.916,0,0,0-.916.518,3.738,3.738,0,0,0-.243,1.527v8.371a6.537,6.537,0,0,0,.216,1.949.915.915,0,0,0,.97.641A.754.754,0,0,0,394.772,88.77Z" transform="translate(-372.659 -67.953)" fill="#6a6d71"/>
        <path id="Path_240907" data-name="Path 240907" d="M468.927,111.2V91.237h4.716V111.2Z" transform="translate(-437.531 -86.575)" fill="#6a6d71"/>
        <path id="Path_240908" data-name="Path 240908" d="M514.95,104.353V96.336a6.321,6.321,0,0,1,1.577-4.512,6.417,6.417,0,0,1,8.651,0,6.32,6.32,0,0,1,1.576,4.512v8.016q0,6.189-5.9,6.189T514.95,104.353Zm6.737,2.1a2.013,2.013,0,0,0,.27-1.118V95.573q0-1.745-1.105-1.745t-1.1,1.745v9.761a2.013,2.013,0,0,0,.269,1.118,1.058,1.058,0,0,0,1.671,0Z" transform="translate(-474.445 -85.703)" fill="#6a6d71"/>
        <path id="Path_240909" data-name="Path 240909" d="M596.651,90.365h4.608v2.318a3,3,0,0,1,3.315-2.536,3.7,3.7,0,0,1,2.008.532,2.882,2.882,0,0,1,1.2,1.458,4.337,4.337,0,0,1,1.321-1.513,3.667,3.667,0,0,1,2.021-.477,3.5,3.5,0,0,1,3.22,1.432,7.845,7.845,0,0,1,.9,4.158l-.054,14.587h-4.743V95.655q0-1.935-.97-1.936a1,1,0,0,0-.97.668,3.91,3.91,0,0,0-.3,1.595v14.341H603.5V95.655a4.362,4.362,0,0,0-.175-1.363.712.712,0,0,0-.741-.518,1.041,1.041,0,0,0-1.024.723,4.554,4.554,0,0,0-.3,1.731v14.1h-4.608Z" transform="translate(-539.976 -85.703)" fill="#6a6d71"/>
        <path id="Path_240910" data-name="Path 240910" d="M713.755,111.2V91.237h4.716V111.2Z" transform="translate(-633.903 -86.575)" fill="#6a6d71"/>
        <path id="Path_240911" data-name="Path 240911" d="M771.474,91.237h-4.716L764.7,95.888l-2.058-4.651h-4.716l4.416,9.979-4.416,9.979h4.716l2.058-4.651,2.058,4.651h4.716l-4.416-9.979Z" transform="translate(-669.331 -86.575)" fill="#6a6d71"/>
        <rect id="Rectangle_125477" data-name="Rectangle 125477" width="4.716" height="3.326" transform="translate(31.396 0)" fill="#3dae2b"/>
        <rect id="Rectangle_125478" data-name="Rectangle 125478" width="4.716" height="3.326" transform="translate(79.853 0)" fill="#3dae2b"/>
        <g id="Group_184932" data-name="Group 184932" transform="translate(104.804)">
          <path id="Path_240912" data-name="Path 240912" d="M839.826,67.953h1.085v.325h-.338v3h-.385v-3h-.362Z" transform="translate(-839.826 -67.953)" fill="#6a6d71"/>
          <path id="Path_240913" data-name="Path 240913" d="M848.333,67.953h.484V71.28h-.344V69.945l.032-1.244-.447,2.572h-.349l-.465-2.572.032,1.244V71.28h-.342V67.953h.482l.471,2.735Z" transform="translate(-845.527 -67.953)" fill="#6a6d71"/>
        </g>
      </g>
      <g id="Group_184934" data-name="Group 184934" transform="translate(51.427 10.614)">
        <path id="Path_240914" data-name="Path 240914" d="M259.84,80.755V91.509a.277.277,0,0,0,.554,0V53.28a.277.277,0,0,0-.554,0Z" transform="translate(-259.84 -53.009)" fill="#328d2e"/>
      </g>
      <path id="Path_240915" data-name="Path 240915" d="M67.178,95.037a8.854,8.854,0,0,1-3.218,3.256l-8.466,4.945a1.656,1.656,0,0,1-2.483-1.451v-7.96a8.987,8.987,0,0,1,1.178-4.448,8.856,8.856,0,0,1,3.218-3.256l8.466-4.945a1.656,1.656,0,0,1,2.483,1.451v7.96A8.987,8.987,0,0,1,67.178,95.037Zm-8.263-6.271a5.857,5.857,0,0,0-2.888,5.061v3.517a1.175,1.175,0,0,0,1.763,1.03l4.662-2.723a5.857,5.857,0,0,0,2.888-5.061V85.013Z" transform="translate(-42.519 -64.742)" fill="#3dae2b"/>
      <path id="Path_240916" data-name="Path 240916" d="M80.567,131.023a8.98,8.98,0,0,1-1.165,4.059,8.854,8.854,0,0,1-3.218,3.256l-7.933,4.634v-5.583a1.175,1.175,0,0,0,1.763,1.03l4.662-2.723a5.852,5.852,0,0,0,2.875-4.673Z" transform="translate(-54.742 -104.788)" opacity="0.3" fill="url(#linear-gradient)" style="mix-blend-mode: multiply;isolation: isolate"/>
      <g id="Group_184935" data-name="Group 184935" transform="translate(26.642 23.454)">
        <path id="Path_240917" data-name="Path 240917" d="M134.609,126.77v-7.96a1.656,1.656,0,0,1,2.483-1.451l8.466,4.945a8.859,8.859,0,0,1,3.218,3.256,8.989,8.989,0,0,1,1.178,4.448v7.96a1.656,1.656,0,0,1-2.483,1.451l-8.466-4.945a8.858,8.858,0,0,1-3.218-3.256A8.988,8.988,0,0,1,134.609,126.77Zm3.016-5.576v5.576a5.856,5.856,0,0,0,2.888,5.061l4.662,2.723a1.175,1.175,0,0,0,1.763-1.03v-3.517a5.856,5.856,0,0,0-2.888-5.061Z" transform="translate(-134.609 -117.133)" fill="#3dae2b"/>
      </g>
      <path id="Path_240918" data-name="Path 240918" d="M134.609,125.021V117.27a1.327,1.327,0,0,1,1.99-1.163l8.959,5.233a8.8,8.8,0,0,1,1.38,1v6.7a5.857,5.857,0,0,0-2.888-5.061l-6.425-3.753v4.791Z" transform="translate(-107.967 -92.713)" opacity="0.3" fill="url(#linear-gradient-2)" style="mix-blend-mode: multiply;isolation: isolate"/>
      <path id="Path_240919" data-name="Path 240919" d="M135.888,69.513a1.559,1.559,0,0,0-1.279,1.564V87.945a1.559,1.559,0,0,0,1.279,1.564A1.518,1.518,0,0,0,137.625,88V71.021A1.518,1.518,0,0,0,135.888,69.513Z" transform="translate(-107.967 -55.58)" fill="#3dae2b"/>
      <path id="Path_240920" data-name="Path 240920" d="M116.86,88.766a1.521,1.521,0,0,0-1.508,1.526v15.834a1.508,1.508,0,1,0,3.016,0V90.292A1.521,1.521,0,0,0,116.86,88.766Z" transform="translate(-92.522 -70.992)" fill="#3dae2b"/>
      <g id="Group_184937" data-name="Group 184937" transform="translate(22.83 21.007)">
        <g id="Group_184936" data-name="Group 184936">
          <rect id="Rectangle_125479" data-name="Rectangle 125479" width="3.016" height="2.655" fill="#328d2e"/>
          <rect id="Rectangle_125480" data-name="Rectangle 125480" width="3.016" height="1.251" transform="translate(0 8.776)" fill="#328d2e"/>
          <rect id="Rectangle_125481" data-name="Rectangle 125481" width="3.016" height="1.065" transform="translate(0 6.358)" fill="#328d2e"/>
          <rect id="Rectangle_125482" data-name="Rectangle 125482" width="3.016" height="2.427" transform="translate(0 11.004)" fill="#328d2e"/>
        </g>
        <rect id="Rectangle_125483" data-name="Rectangle 125483" width="3.016" height="2.985" transform="translate(0 3.373)" fill="#0b552a"/>
        <rect id="Rectangle_125484" data-name="Rectangle 125484" width="3.016" height="1.354" transform="translate(0 7.423)" fill="#0b552a"/>
      </g>
      <g id="Group_184938" data-name="Group 184938" transform="translate(26.642 17.399)">
        <rect id="Rectangle_125485" data-name="Rectangle 125485" width="3.016" height="2.154" fill="#328d2e"/>
        <rect id="Rectangle_125486" data-name="Rectangle 125486" width="3.016" height="0.91" transform="translate(0 2.779)" fill="#328d2e"/>
        <rect id="Rectangle_125487" data-name="Rectangle 125487" width="3.016" height="0.97" transform="translate(0 7.055)" fill="#328d2e"/>
        <rect id="Rectangle_125488" data-name="Rectangle 125488" width="3.016" height="1.188" transform="translate(0 10.348)" fill="#328d2e"/>
        <rect id="Rectangle_125489" data-name="Rectangle 125489" width="3.016" height="1.119" transform="translate(0 11.828)" fill="#328d2e"/>
        <rect id="Rectangle_125490" data-name="Rectangle 125490" width="3.016" height="1.91" transform="translate(0 8.438)" fill="#0b552a"/>
        <rect id="Rectangle_125491" data-name="Rectangle 125491" width="3.016" height="2.991" transform="translate(0 3.857)" fill="#0b552a"/>
      </g>
      <rect id="Rectangle_125492" data-name="Rectangle 125492" width="180" height="60" fill="none"/>
    </g>
  </g>
</svg>
